<svg id="Layer_1" data-name="Layer 1" xmlns="http://www.w3.org/2000/svg" viewBox="0 0 348.1 196.96"><defs><style>.cls-1{fill:#99425b;}.cls-2{fill:#fff;}.cls-3{fill:#e9551d;}.cls-4{fill:#ef7c10;}.cls-5{fill:#f6a307;}.cls-6{fill:#b91d1b;}.cls-7{fill:#020203;}</style></defs><path class="cls-1" d="M339.22,101.38a18,18,0,0,0-18-18c-.64,0-1.27,0-1.89.1L344,10.74H239.19l24.64,72.71c-.37,0-.73,0-1.1,0a18,18,0,0,0-5.45,35.08,78.28,78.28,0,0,1-14.13,17.77A71.79,71.79,0,0,1,218,151.9c-11-5.63-16.15-18.17-11.47-29.15.53-1.24,1.06-2.5,1.58-3.75a18,18,0,1,0-14.41-2.78c-4.44,10.12-11,20.71-13,33-2.44,14.72,0,30.34,12.72,39.16,29.65,20.55,61.82-12.73,95.75-21.1,12.29-3,25.79-2.54,36.62-8.82a30.65,30.65,0,0,0,15-21.28A32,32,0,0,0,335,112.89a17.81,17.81,0,0,0,4.18-11.51" transform="translate(-2.06 -3.03)"/><path class="cls-2" d="M336.45,136.42a26.34,26.34,0,0,1-12.9,18.24c-6.41,3.71-14.08,4.81-22.21,6A132.76,132.76,0,0,0,288.08,163c-11.64,2.87-22.9,8.46-33.8,13.88-21.81,10.83-40.64,20.18-58.4,7.87-13-9-12.4-25.69-10.89-34.83,1.41-8.47,5.2-16.27,8.88-23.81l1.86-3.85a22.11,22.11,0,0,0,5.77,1.45c-3.74,12.33,2.14,25.74,14.48,32.08l1.69.87,1.78-.64a76,76,0,0,0,26.72-16.56,83.52,83.52,0,0,0,13.22-16,22,22,0,0,0,3.34.25,22.39,22.39,0,0,0,22.16-19.4c4.63-.17,9.55-.17,14.21,0a22.34,22.34,0,0,0,34.9,15.4,27.28,27.28,0,0,1,2.45,16.69ZM204,87.93a13.58,13.58,0,0,1,.94,27.12c-.31,0-.62,0-.94,0a13.58,13.58,0,0,1,0-27.15Zm45.17,13.45A13.61,13.61,0,0,1,260.72,88a13.4,13.4,0,0,1,2-.15,13.55,13.55,0,0,1,10.72,5.26A13.86,13.86,0,0,1,275,95.63a13.44,13.44,0,0,1,1.28,5.75,13.58,13.58,0,0,1-12.21,13.51c-.45,0-.9.07-1.37.07a13.61,13.61,0,0,1-13.57-13.58Zm56.66-16.15a22.46,22.46,0,0,0-6.15,10.34c-5.11-.19-10.24-.19-15.35,0a22.41,22.41,0,0,0-6.74-10.88l14.05-28.4,14.19,28.94Zm-60.51-70.1h92.61L316.05,79.65a21.65,21.65,0,0,0-2.77.85L291.67,36.42,270,80.24a24.17,24.17,0,0,0-2.89-.78Zm89.52,86.25a13.42,13.42,0,0,1-.58,3.92,13.57,13.57,0,0,1-26.57-3.92,13.43,13.43,0,0,1,1.05-5.24A14.07,14.07,0,0,1,310,93.79a13.58,13.58,0,0,1,11.25-6c.42,0,.85,0,1.27.06a13.6,13.6,0,0,1,12.3,13.52Zm8.78,0a22.39,22.39,0,0,0-18.22-22L350.16,6.36H233.07l24.81,73.21A22.33,22.33,0,0,0,251,120.36a74.76,74.76,0,0,1-10.81,12.72,67.57,67.57,0,0,1-21.78,14c-7.94-5-11.3-14.4-7.81-22.61l.27-.64.51-1.2a22.37,22.37,0,1,0-23-5.2c-.76,1.62-1.54,3.25-2.33,4.86-3.77,7.73-8,16.49-9.64,26.21-3.21,19.32,2,34.76,14.55,43.49a39.63,39.63,0,0,0,23.19,7.37c14.7,0,29.56-7.38,44.1-14.6,10.48-5.2,21.3-10.58,32-13.22,4-1,8.07-1.57,12.41-2.2,8.6-1.24,17.49-2.52,25.36-7.08a35.07,35.07,0,0,0,17.14-24.33A36.17,36.17,0,0,0,340.33,113a22.22,22.22,0,0,0,3.28-11.63Z" transform="translate(-2.06 -3.03)"/><path class="cls-3" d="M134.49,28a67,67,0,0,1,11.84,37,62.44,62.44,0,0,0-16.46-18.52,72.41,72.41,0,0,1,8.56,36.33A32.55,32.55,0,0,0,124.62,63c4.3,10.75,8.43,23.54,2.07,33.22a93.11,93.11,0,0,0-6-15,81.23,81.23,0,0,1-10.92,46,59.53,59.53,0,0,0-8.2-29.47,126.3,126.3,0,0,1-5.71,38.43,101.78,101.78,0,0,0-13.14-33.15,133.18,133.18,0,0,1-9.84,28.19,125.09,125.09,0,0,0-9.87-28c-5.64,9.15-4.66,20.73-3.44,31.38A90.38,90.38,0,0,1,47.93,82.83,34.75,34.75,0,0,0,39.86,101c-7.64-9.9-6.49-23.7-5-36.13A61.76,61.76,0,0,0,19.08,84.77C17.73,68,25.93,52.14,33.9,37.29A60.08,60.08,0,0,1,16.35,53.42,270.55,270.55,0,0,0,26.85,22a23.19,23.19,0,0,1-7.51,10.82,7.66,7.66,0,0,1-.53,2.07C14.22,45.06,2.68,58.51,2.06,59.69c0,0,7.28-.82,12.33-5.51C6.58,69.1,19.44,96.9,25.6,103.92c-1.18-3.18-.92-7.67,1.84-9.67-1.35,29.05,22.88,46,22.88,46S47,133.69,49.8,130c1.57,8,35.9,19.14,35.9,35.14,0-16.23,36.92-28,40.76-50.29.62,0,1.57,6.59-.33,9,17.58-10.33,29.18-43.12,27.9-52.6,2.76,3,4.37,9.78,4.37,9.78s10.59-24.5-.33-45.12C153.94,28,150,24.5,146.56,22c1.11,5,3.64,9.58,6.13,14.07A26.36,26.36,0,0,0,134.49,28Z" transform="translate(-2.06 -3.03)"/><path class="cls-4" d="M80.62,25C42.78,24.08,28.26,12.63,28.26,3c0,17.83-8.23,24-8.92,29.83A23.19,23.19,0,0,0,26.85,22a270.55,270.55,0,0,1-10.5,31.38A60.08,60.08,0,0,0,33.9,37.29C25.93,52.14,17.73,68,19.08,84.77A61.35,61.35,0,0,1,34.85,64.9c-1.48,12.43-2.59,26.26,5,36.23A34.7,34.7,0,0,1,48,82.93a90.45,90.45,0,0,0,11.61,51.84c-1.18-10.65-2.2-22.23,3.44-31.38a124.08,124.08,0,0,1,9.87,28,133.07,133.07,0,0,0,9.84-28.2,101.58,101.58,0,0,1,13.15,33.15,126.2,126.2,0,0,0,5.7-38.43,59.88,59.88,0,0,1,8.2,29.48,81.17,81.17,0,0,0,10.92-46,94.68,94.68,0,0,1,6,15c6.36-9.7,2.23-22.49-2.06-33.21A32.7,32.7,0,0,1,138.46,83a72.41,72.41,0,0,0-8.56-36.33,62.44,62.44,0,0,1,16.46,18.52,67.06,67.06,0,0,0-11.83-37,26.13,26.13,0,0,1,18.19,8.07c-2.49-4.49-5-9.08-6.13-14.07-5.54-3.93-9.93-5.44-12.43-19C134.13,12.63,118.49,25.91,80.62,25Z" transform="translate(-2.06 -3.03)"/><path class="cls-5" d="M60,31.22c-6.69,5.81-7.93,18.3-6.65,27A21.76,21.76,0,0,1,59.6,47.62c-1.67,5,.17,10.46,2.17,15.38,2.39,5.9,5.08,11.74,9,16.72a35.1,35.1,0,0,1,1.37-20.53c0,2.46,1.32,4.73,2.5,6.89a119.6,119.6,0,0,1,11.8,31.58c5.34-10.63,3.61-23.38,7-34.76,4.85,4.85,6.06,12.13,6.82,18.92a49.92,49.92,0,0,0,4.59-28.53A29,29,0,0,1,112.75,66a46.24,46.24,0,0,0-1-23.38c-1.48-4.75-4.07-9.6-8.63-11.74a18.79,18.79,0,0,0-5.54-1.44c-3.28-.46-6.59-.72-9.9-1a64.1,64.1,0,0,0-12.23-.1,21.75,21.75,0,0,0-11.25,4.36" transform="translate(-2.06 -3.03)"/><path class="cls-6" d="M61,30.11C59.11,47,95.34,57.85,104.46,31.55,107.28,23.42,61.44,25.78,61,30.11Z" transform="translate(-2.06 -3.03)"/><path class="cls-2" d="M63.8,36.34c0,2.66,37.25,1.77,37.18-.66,0-.52.26-6.13.3-6.75-10.46.56-28.36.29-37.51,3.08l0,4.33Z" transform="translate(-2.06 -3.03)"/><path class="cls-5" d="M82.36,23.36c6.59,6.85,41.41,8.06,50.3-2.53-6.07,5.08-14.14,4.56-16.89,3.54a7.67,7.67,0,0,0,5.64-5.9c-15.18,15.31-19.64-10.95-38.85,3.08C66.69,10,56.26,26.37,44.16,20.7l5.15,3.67s-7.58,5-16.89-3.54a21.39,21.39,0,0,0,4.23,4.69C49.63,30,76.19,28.27,82.36,23.36Z" transform="translate(-2.06 -3.03)"/><path class="cls-3" d="M82.56,29.42c11.67,6.49,40.42,6.2,50.1-8.56h0c-8.89,10.56-43.71,9.35-50.3,2.5C76.19,28.27,49.63,30,36.65,25.52,48.75,35.59,72.26,35.16,82.56,29.42Z" transform="translate(-2.06 -3.03)"/><path class="cls-3" d="M86.52,159.66c-6.75,3.77-15.9,24.2,1.31,40.33-1.31-15.15,14.3-23.81-1.31-40.33" transform="translate(-2.06 -3.03)"/><path class="cls-4" d="M86.13,159.66c-3.31,3.77-6.72,24.2,1.74,40.33-.66-15.15,5.9-23.81-1.74-40.33" transform="translate(-2.06 -3.03)"/><path class="cls-7" d="M66.59,156.41c1.34-2.65,18.72,2.66,18.72,2.66s15.31-6.1,18.1-5.15,1.87,15.71,0,15.71-18.07-8.27-18.07-8.27-15.64,8.5-17.18,8.27S65.8,158,66.59,156.41Z" transform="translate(-2.06 -3.03)"/></svg>